<?xml version="1.0" standalone="no"?>
<!DOCTYPE svg PUBLIC "-//W3C//DTD SVG 20010904//EN"
 "http://www.w3.org/TR/2001/REC-SVG-20010904/DTD/svg10.dtd">
<svg version="1.0" xmlns="http://www.w3.org/2000/svg"
 width="280.000000pt" height="280.000000pt" viewBox="0 0 280.000000 280.000000"
 preserveAspectRatio="xMidYMid meet">
<metadata>
Created by potrace 1.11, written by Peter Selinger 2001-2013
</metadata>
<g transform="translate(0.000000,280.000000) scale(0.100000,-0.100000)"
fill="#000000" stroke="none">
<path d="M1260 2789 c-110 -16 -277 -82 -377 -151 -56 -38 -192 -174 -230
-229 -84 -122 -139 -271 -162 -434 -13 -101 -64 -90 417 -91 232 -1 422 0 422
2 0 2 -17 12 -38 23 -88 45 -127 110 -133 221 -8 140 134 266 278 246 89 -12
181 -87 203 -165 35 -127 -14 -247 -122 -302 -21 -11 -38 -21 -38 -23 0 -1
191 -3 425 -3 l424 0 -5 51 c-25 243 -101 415 -260 582 -132 139 -321 240
-502 270 -56 9 -244 11 -302 3z"/>
<path d="M501 1707 c66 -302 255 -539 534 -668 116 -53 220 -73 385 -72 137 1
248 21 323 58 16 8 33 15 38 15 20 0 155 87 221 144 85 72 182 196 223 283 33
70 72 178 80 223 3 19 8 38 11 44 3 6 -14 -10 -39 -36 -113 -121 -277 -124
-385 -8 l-36 40 -43 -46 c-56 -58 -101 -77 -184 -76 -83 0 -122 17 -179 75
l-45 47 -50 -49 c-61 -58 -112 -80 -183 -76 -67 4 -129 33 -177 84 l-38 40
-41 -42 c-111 -114 -266 -111 -374 8 l-50 54 9 -42z"/>
<path d="M17 1389 c-10 -6 -14 -21 -11 -46 1 -21 6 -67 9 -103 14 -149 83
-371 158 -509 215 -396 640 -689 1056 -727 l73 -7 -6 74 c-12 130 -17 162 -43
269 -59 241 -188 466 -374 650 -154 151 -295 243 -491 321 -104 41 -346 92
-371 78z"/>
<path d="M2625 1370 c-111 -25 -193 -54 -310 -109 -198 -94 -343 -207 -494
-386 -38 -45 -126 -185 -164 -260 -37 -74 -92 -222 -101 -271 -6 -38 -14 -71
-20 -92 -6 -19 -12 -71 -22 -181 l-6 -74 68 6 c38 4 80 9 94 12 14 3 36 8 48
11 59 12 235 77 312 114 191 94 364 241 506 432 151 203 247 467 261 721 l6
97 -49 -1 c-27 0 -85 -9 -129 -19z"/>
</g>
</svg>
