<?xml version="1.0" encoding="utf-8"?>
<!-- Generator: Adobe Illustrator 15.1.0, SVG Export Plug-In . SVG Version: 6.00 Build 0)  -->
<!DOCTYPE svg PUBLIC "-//W3C//DTD SVG 1.1//EN" "http://www.w3.org/Graphics/SVG/1.1/DTD/svg11.dtd">
<svg version="1.1" id="Layer_1" xmlns="http://www.w3.org/2000/svg" xmlns:xlink="http://www.w3.org/1999/xlink" x="0px" y="0px"
	 width="300.66" height="300.66" viewBox="512.92 512.92 300.66 300.66" enable-background="new 512.92 512.92 300.66 300.66"
	 xml:space="preserve" preserveAspectRatio="xMidYMid meet">
<g>
	<g>
		<defs>
			<rect id="SVGID_1_" x="512.92" y="512.92" width="300.66" height="300.66"/>
		</defs>
		<clipPath id="SVGID_2_">
			<use xlink:href="#SVGID_1_"  overflow="visible"/>
		</clipPath>
		
			<circle clip-path="url(#SVGID_2_)" fill="#FFFFFF" stroke="#0668B3" stroke-width="6.7997" cx="663.465" cy="663.239" r="145.468"/>
	</g>
	<g>
		<defs>
			<rect id="SVGID_3_" x="512.92" y="512.92" width="300.66" height="300.66"/>
		</defs>
		<clipPath id="SVGID_4_">
			<use xlink:href="#SVGID_3_"  overflow="visible"/>
		</clipPath>
		<g clip-path="url(#SVGID_4_)">
			<path fill="#0668B3" d="M711.767,632.391c0,8.953-6.075,16.206-13.577,16.206c-4.941,0-9.248-3.15-11.628-7.842
				c-2.38,4.692-6.709,7.842-11.627,7.842c-4.964,0-9.316-3.173-11.673-7.91c-2.38,4.737-6.709,7.91-11.673,7.91
				c-4.941,0-9.248-3.15-11.627-7.842c-2.38,4.692-6.709,7.842-11.627,7.842c-7.502,0-13.577-7.23-13.577-16.184
				c0.022,26.792,21.737,48.505,48.55,48.505C690.053,680.918,711.767,659.182,711.767,632.391L711.767,632.391L711.767,632.391z"/>
			<path fill="#2DA343" d="M628.289,648.597c4.941,0,9.248-3.15,11.627-7.842c2.379,4.692,6.709,7.842,11.627,7.842
				c4.964,0,9.316-3.173,11.673-7.91c2.38,4.737,6.71,7.91,11.673,7.91c4.941,0,9.248-3.15,11.628-7.842
				c2.38,4.692,6.709,7.842,11.627,7.842c7.503,0,13.577-7.253,13.577-16.206l0,0c-0.316,0-24.434,0-48.527,0
				c-24.275,0-48.527,0-48.55,0l0,0c0,0.022,0,0.022,0,0.046C614.711,641.343,620.786,648.597,628.289,648.597z"/>
			<path fill="#0095D6" d="M663.239,583.841c-26.813,0-48.55,21.736-48.55,48.55l0,0c0.022,0,24.275,0,48.55,0
				c-7.298,0-13.214-5.916-13.214-13.214c0-7.298,5.916-13.214,13.214-13.214c7.298,0,13.213,5.916,13.213,13.214
				c0,7.298-5.915,13.214-13.213,13.214c24.275,0,48.55,0,48.55,0l0,0C711.767,605.577,690.053,583.841,663.239,583.841z"/>
		</g>
	</g>
	<g>
		<defs>
			<rect id="SVGID_5_" x="512.92" y="512.92" width="300.66" height="300.66"/>
		</defs>
		<clipPath id="SVGID_6_">
			<use xlink:href="#SVGID_5_"  overflow="visible"/>
		</clipPath>
		<g clip-path="url(#SVGID_6_)">
			<path fill="#2DA343" stroke="#2DA343" stroke-width="0.2267" d="M745.017,723.211c-10.901-5.893-23.413-9.246-36.672-9.246
				c-17.84,0-34.249,6.052-47.327,16.205c10.902,5.916,23.413,9.248,36.673,9.248C715.529,739.441,731.938,733.366,745.017,723.211z
				"/>
			<path fill="#2DA343" stroke="#2DA343" stroke-width="0.2267" d="M665.46,730.17c-13.078-10.153-29.488-16.205-47.326-16.205
				c-13.282,0-25.771,3.354-36.672,9.246c13.078,10.155,29.488,16.207,47.326,16.207C642.046,739.441,654.558,736.086,665.46,730.17
				z"/>
		</g>
	</g>
	<g>
		<defs>
			<rect id="SVGID_7_" x="512.92" y="512.92" width="300.66" height="300.66"/>
		</defs>
		<clipPath id="SVGID_8_">
			<use xlink:href="#SVGID_7_"  overflow="visible"/>
		</clipPath>
		
			<line clip-path="url(#SVGID_8_)" fill="none" stroke="#2DA343" stroke-width="6.1197" x1="663.239" y1="684.477" x2="663.239" y2="744.132"/>
	</g>
	<g>
		<defs>
			<rect id="SVGID_9_" x="512.92" y="512.92" width="300.66" height="300.66"/>
		</defs>
		<clipPath id="SVGID_10_">
			<use xlink:href="#SVGID_9_"  overflow="visible"/>
		</clipPath>
		<g clip-path="url(#SVGID_10_)">
			<path fill="none" stroke="#2DA343" stroke-width="6.7997" d="M740.506,658.955c-35.676,4.919-64.279,31.233-71.691,65.187
				C704.944,720.175,734.001,693.406,740.506,658.955z"/>
			<path fill="none" stroke="#2DA343" stroke-width="6.7997" d="M585.972,658.955c6.505,34.451,35.563,61.22,71.691,65.187
				C650.229,690.188,621.625,663.874,585.972,658.955z"/>
		</g>
	</g>
	<g>
		<defs>
			<rect id="SVGID_11_" x="512.92" y="512.92" width="300.66" height="300.66"/>
		</defs>
		<clipPath id="SVGID_12_">
			<use xlink:href="#SVGID_11_"  overflow="visible"/>
		</clipPath>
		<g clip-path="url(#SVGID_12_)">
			<g>
				<g>
					<path fill="#0668B3" d="M588.057,566.501c1.564,1.769,2.312,3.514,2.199,5.236c-0.091,1.723-1.042,3.377-2.788,4.941
						c-1.746,1.564-3.491,2.289-5.236,2.198c-1.723-0.09-3.377-1.02-4.941-2.787l-6.936-7.797l1.337-1.179l1.337-1.179l7.525,8.455
						c0.793,0.884,1.631,1.36,2.493,1.404c0.861,0.046,1.745-0.316,2.652-1.11c0.884-0.793,1.36-1.632,1.405-2.493
						c0.045-0.861-0.317-1.746-1.111-2.652l-7.525-8.454l1.337-1.179l1.337-1.179L588.057,566.501z"/>
					<path fill="#0668B3" d="M597.712,568.043l-1.36,0.885l-1.36,0.883l-9.406-14.529l2.085-1.36l2.085-1.36l12.353,7.548
						l-7.095-10.971l1.36-0.883l1.36-0.885l9.406,14.529l-2.063,1.338l-2.063,1.336l-12.511-7.661L597.712,568.043z"/>
					<path fill="#0668B3" d="M602.223,545.151l1.586-0.816l1.586-0.816l7.82,15.458l-1.586,0.816l-1.586,0.816L602.223,545.151z"/>
					<path fill="#0668B3" d="M614.598,542.385l-4.918,1.904l-0.499-1.247l-0.499-1.246l13.146-5.123l0.499,1.247l0.499,1.247
						l-4.918,1.904l5.303,13.622l-1.654,0.657l-1.654,0.657L614.598,542.385z"/>
					<path fill="#0668B3" d="M630.124,552.268l-4.147-16.795l11.083-2.743l0.317,1.314l0.317,1.314l-7.616,1.881l1.02,4.148
						l7.14-1.768l0.317,1.315l0.317,1.314l-7.14,1.768l1.202,4.805l7.842-1.949l0.317,1.314l0.318,1.314L630.124,552.268z"/>
					<path fill="#0668B3" d="M641.842,531.801l1.768-0.182l5.055-0.521c2.561-0.272,4.646,0.294,6.232,1.655
						c1.61,1.382,2.539,3.4,2.811,6.097c0.294,2.81-0.294,5.032-1.767,6.664c-1.474,1.632-3.786,2.606-6.914,2.947l-3.627,0.385
						l-1.768,0.182L641.842,531.801z M646.919,545.967l2.471-0.249c1.791-0.182,3.105-0.839,3.921-1.95
						c0.816-1.11,1.134-2.628,0.929-4.556c-0.204-1.904-0.839-3.309-1.904-4.238s-2.494-1.292-4.284-1.11l-2.38,0.249
						L646.919,545.967z"/>
					<path fill="#0668B3" d="M679.468,536.244c0.067-0.794-0.137-1.428-0.567-1.904c-0.453-0.499-1.089-0.771-1.949-0.884
						c-0.793-0.09-1.495,0.045-2.063,0.408c-0.566,0.362-0.906,0.862-0.975,1.473c-0.068,0.521,0.136,0.998,0.59,1.405
						c0.453,0.408,1.292,0.861,2.538,1.405l2.131,0.907c1.428,0.612,2.403,1.292,2.924,2.04c0.545,0.748,0.748,1.723,0.612,2.901
						c-0.182,1.586-0.951,2.81-2.335,3.672c-1.382,0.861-3.082,1.201-5.076,0.975c-2.313-0.25-3.99-0.929-5.011-2.017
						c-0.996-1.066-1.404-2.539-1.201-4.42l0.023-0.158l3.49,0.385c-0.159,0.998,0.022,1.814,0.544,2.425
						c0.521,0.612,1.337,0.997,2.425,1.111c0.952,0.113,1.768-0.023,2.472-0.408c0.679-0.385,1.064-0.929,1.133-1.609
						c0.045-0.454-0.113-0.839-0.454-1.179c-0.362-0.34-1.042-0.725-2.039-1.156l-2.131-0.907c-1.654-0.725-2.81-1.474-3.444-2.243
						c-0.636-0.771-0.885-1.723-0.748-2.879c0.181-1.609,0.905-2.856,2.197-3.763c1.292-0.907,2.856-1.247,4.692-1.042
						c2.063,0.227,3.604,0.861,4.624,1.881c0.93,0.952,1.314,2.154,1.156,3.582l-0.046,0.385L679.468,536.244z"/>
					<path fill="#0668B3" d="M691.639,536.288l-5.122-1.247l0.317-1.314l0.317-1.315l13.712,3.355l-0.317,1.314l-0.317,1.315
						l-5.122-1.247l-3.49,14.188l-1.723-0.431l-1.723-0.43L691.639,536.288z"/>
					<path fill="#0668B3" d="M708.004,538.351l2.13,0.816l2.13,0.839l-0.271,18.472l-1.79-0.703l-1.791-0.703l0.181-3.875
						l-6.846-2.652l-2.47,2.992l-1.768-0.68l-1.768-0.703L708.004,538.351z M703.562,548.369l5.145,1.995l0.385-8.636l0,0
						L703.562,548.369z"/>
					<path fill="#0668B3" d="M722.668,547.871l-4.624-2.539l0.658-1.178l0.656-1.179l12.377,6.777l-0.658,1.179l-0.657,1.178
						l-4.624-2.539l-7.027,12.829l-1.563-0.861l-1.564-0.861L722.668,547.871z"/>
					<path fill="#0668B3" d="M723.553,565.119l9.949-14.167l9.339,6.574l-0.771,1.11l-0.77,1.111l-6.415-4.51l-2.47,3.49
						l6.028,4.238l-0.771,1.111l-0.771,1.11l-6.028-4.239l-2.856,4.035l6.598,4.647l-0.772,1.11l-0.771,1.111L723.553,565.119z"/>
					<path fill="#0668B3" d="M749.844,570.083c0.521-0.589,0.727-1.224,0.658-1.881s-0.431-1.269-1.065-1.858
						c-0.589-0.544-1.225-0.839-1.903-0.884c-0.681-0.045-1.225,0.159-1.656,0.612c-0.361,0.386-0.476,0.884-0.361,1.474
						c0.112,0.589,0.521,1.473,1.224,2.629l1.179,1.995c0.793,1.337,1.179,2.448,1.156,3.377c0,0.906-0.408,1.813-1.225,2.697
						c-1.089,1.178-2.425,1.7-4.058,1.586c-1.632-0.113-3.196-0.861-4.668-2.221c-1.724-1.564-2.675-3.105-2.856-4.602
						c-0.181-1.45,0.362-2.879,1.654-4.284l0.113-0.113l2.584,2.38c-0.726,0.725-1.043,1.473-0.997,2.289
						c0.068,0.816,0.498,1.586,1.314,2.335c0.703,0.657,1.451,1.02,2.244,1.11c0.771,0.09,1.405-0.114,1.881-0.634
						c0.318-0.34,0.408-0.749,0.318-1.225c-0.091-0.476-0.409-1.202-0.953-2.131l-1.179-1.994c-0.929-1.563-1.404-2.833-1.45-3.83
						c-0.046-0.998,0.317-1.927,1.088-2.788c1.088-1.202,2.425-1.769,3.989-1.745c1.563,0.022,3.037,0.68,4.42,1.927
						c1.541,1.405,2.402,2.833,2.606,4.238c0.182,1.315-0.204,2.516-1.178,3.581l-0.273,0.272L749.844,570.083z"/>
				</g>
				<g>
					<path fill="#0668B3" d="M545.31,603.605l15.707,7.275l-4.827,10.381l-1.225-0.567l-1.224-0.566l3.309-7.118l-3.875-1.79
						l-3.105,6.686l-1.224-0.567l-1.224-0.566l3.105-6.686l-4.488-2.085l-3.4,7.32l-1.224-0.566l-1.224-0.567L545.31,603.605z"/>
					<path fill="#0668B3" d="M537.467,622.373l0.476-1.564l0.476-1.564l16.591,4.941l-0.703,2.379l-0.703,2.38l-14.302,2.267
						l12.511,3.74l-0.476,1.564l-0.477,1.563l-16.591-4.94l0.703-2.357l0.702-2.357l14.483-2.289L537.467,622.373z"/>
					<path fill="#0668B3" d="M550.16,640.732l-0.249,1.926l-0.25,1.927l-13.939,2.924l0,0l12.692,6.438l-0.226,1.745l-0.227,1.745
						l-16.319-8.749l0.25-1.881l0.249-1.882L550.16,640.732z"/>
					<path fill="#0668B3" d="M548.143,659.59l-0.045,1.791l-0.045,1.791l-17.294-0.453l0.046-1.791l0.045-1.791L548.143,659.59z"/>
					<path fill="#0668B3" d="M547.938,667.409l0.136,1.768l0.409,5.168c0.158,2.018-0.091,3.604-0.794,4.759
						c-0.68,1.135-1.746,1.769-3.195,1.883c-1.474,0.113-2.629-0.386-3.468-1.475c-0.408-0.543-0.748-1.2-0.997-1.993
						c-0.045,0.702-0.158,1.247-0.317,1.655c-0.34,0.883-1.065,1.404-2.176,1.631c-1.111,0.205-2.085,0.431-2.924,0.635
						l-0.249,0.067c-0.635,0.182-1.134,0.317-1.542,0.476c-0.385,0.137-0.748,0.295-1.088,0.477l-0.158-1.881l-0.159-1.882
						c0.227-0.09,0.521-0.203,0.93-0.294c0.385-0.091,0.975-0.227,1.723-0.385l1.519-0.296c1.133-0.227,1.881-0.521,2.198-0.861
						c0.318-0.362,0.454-1.021,0.386-1.995l-0.25-3.037l-7.004,0.568l-0.136-1.792l-0.136-1.79L547.938,667.409z M540.64,671.558
						l0.182,2.199c0.091,1.268,0.385,2.242,0.861,2.878c0.477,0.634,1.111,0.928,1.882,0.884c0.793-0.067,1.382-0.408,1.745-1.042
						c0.362-0.637,0.521-1.497,0.43-2.607l-0.204-2.699L540.64,671.558z"/>
					<path fill="#0668B3" d="M534.634,687.672c1.179-1.677,3.218-2.833,6.075-3.49c2.856-0.658,5.19-0.477,6.98,0.499
						c1.791,0.997,2.97,2.765,3.559,5.303c0.589,2.562,0.272,4.67-0.906,6.324c-1.201,1.655-3.219,2.811-6.074,3.469
						c-2.879,0.656-5.191,0.476-6.981-0.499c-1.791-0.997-2.969-2.765-3.558-5.305C533.138,691.458,533.433,689.35,534.634,687.672z
						 M538.646,696.308c1.224,0.499,2.833,0.522,4.827,0.069c1.995-0.454,3.445-1.18,4.329-2.154
						c0.884-0.976,1.156-2.199,0.839-3.627c-0.317-1.427-1.087-2.379-2.312-2.9c-1.224-0.499-2.834-0.544-4.828-0.092
						c-2.017,0.454-3.445,1.18-4.329,2.154c-0.884,0.974-1.156,2.197-0.816,3.604C536.674,694.835,537.422,695.786,538.646,696.308z
						"/>
					<path fill="#0668B3" d="M538.487,709.363l-0.589-1.518l-0.59-1.52l16.093-6.369l0.906,2.313l0.906,2.311l-9.837,10.63
						l12.149-4.804l0.589,1.519l0.59,1.519l-16.093,6.368l-0.906-2.288l-0.906-2.29l9.95-10.766L538.487,709.363z"/>
					<path fill="#0668B3" d="M546.738,727.928l-0.839-1.385l-0.839-1.38l14.778-9l1.541,2.516l1.542,2.538l-9.882,10.224l0,0
						l13.6-4.104l1.542,2.517l1.541,2.539l-14.777,8.998l-0.839-1.382l-0.839-1.383l13.667-8.318l0,0l-15.957,4.578l-0.975-1.609
						l-0.975-1.608l11.31-11.991l0,0L546.738,727.928z"/>
					<path fill="#0668B3" d="M558.841,746.24l13.191-11.22l7.389,8.703l-1.02,0.862l-1.021,0.861l-5.077-5.985l-3.264,2.767
						l4.782,5.621l-1.02,0.861l-1.021,0.861L567,743.951l-3.785,3.219l5.235,6.142l-1.02,0.862l-1.02,0.861L558.841,746.24z"/>
					<path fill="#0668B3" d="M572.259,760.929l-1.224-1.089l-1.224-1.089l11.514-12.94l1.858,1.653l1.859,1.655l-3.99,13.916
						l8.682-9.768l1.224,1.087l1.224,1.089l-11.514,12.94l-1.836-1.631l-1.836-1.632l4.034-14.1L572.259,760.929z"/>
					<path fill="#0668B3" d="M597.191,762.22l-4.397-2.902l0.748-1.133l0.748-1.133l11.786,7.752l-0.748,1.133l-0.748,1.134
						l-4.397-2.901l-8.024,12.216l-1.496-0.975l-1.496-0.975L597.191,762.22z"/>
					<path fill="#0668B3" d="M611.334,767.455l2.04,0.998l2.063,0.996l-1.722,18.383l-1.723-0.839l-1.723-0.839l0.476-3.854
						l-6.619-3.195l-2.697,2.789l-1.7-0.817l-1.723-0.839L611.334,767.455z M606.122,777.089l4.986,2.401l1.042-8.589l0,0
						L606.122,777.089z"/>
					<path fill="#0668B3" d="M618.27,789.374l5.281-16.479l1.7,0.545l1.7,0.543l-4.465,13.919l6.868,2.197l-0.408,1.292
						l-0.408,1.291L618.27,789.374z"/>
					<path fill="#0668B3" d="M644.313,778.426l1.769,0.204l4.828,0.566c1.904,0.227,3.287,0.861,4.193,1.881
						c0.907,1.043,1.247,2.425,1.043,4.125c-0.204,1.746-0.907,2.992-2.085,3.764c-1.178,0.77-2.833,1.02-4.94,0.77l-2.517-0.294
						l-0.77,6.551l-1.769-0.205l-1.768-0.203L644.313,778.426z M646.919,786.813l1.949,0.227c1.133,0.135,2.018,0,2.674-0.386
						c0.658-0.386,1.021-0.997,1.133-1.837c0.091-0.86-0.09-1.541-0.566-2.062c-0.476-0.521-1.201-0.839-2.176-0.953l-2.379-0.271
						L646.919,786.813z"/>
					<path fill="#0668B3" d="M659.635,779.989l1.791-0.045l5.168-0.113c2.039-0.045,3.604,0.316,4.691,1.064
						c1.11,0.748,1.655,1.859,1.699,3.311c0.023,1.474-0.521,2.583-1.677,3.376c-0.566,0.386-1.247,0.68-2.063,0.861
						c0.681,0.091,1.247,0.227,1.632,0.432c0.862,0.407,1.36,1.155,1.496,2.266s0.295,2.108,0.453,2.946l0.045,0.25
						c0.137,0.636,0.25,1.156,0.387,1.563c0.112,0.408,0.248,0.771,0.407,1.11l-1.882,0.046l-1.881,0.045
						c-0.091-0.227-0.159-0.543-0.25-0.928c-0.067-0.409-0.18-0.975-0.294-1.746l-0.204-1.541c-0.158-1.155-0.407-1.904-0.747-2.244
						c-0.34-0.341-0.998-0.522-1.973-0.499l-3.037,0.067l0.136,7.027l-1.791,0.045l-1.791,0.045L659.635,779.989z M663.353,787.492
						l2.222-0.046c1.269-0.022,2.243-0.249,2.923-0.68s0.997-1.043,0.976-1.835c-0.023-0.794-0.318-1.406-0.93-1.814
						c-0.612-0.408-1.474-0.611-2.584-0.591l-2.697,0.048L663.353,787.492z"/>
					<path fill="#0668B3" d="M680.691,794.269c-1.609-1.269-2.675-3.354-3.174-6.232c-0.521-2.902-0.226-5.214,0.839-6.959
						c1.066-1.745,2.901-2.833,5.463-3.31c2.584-0.453,4.668-0.045,6.277,1.225c1.609,1.269,2.676,3.355,3.174,6.233
						c0.521,2.901,0.227,5.212-0.838,6.958c-1.065,1.745-2.901,2.833-5.485,3.31C684.386,795.946,682.301,795.538,680.691,794.269z
						 M689.508,790.666c0.567-1.18,0.658-2.789,0.318-4.828c-0.363-2.018-0.998-3.49-1.949-4.421
						c-0.93-0.929-2.132-1.246-3.582-0.997c-1.428,0.25-2.447,0.975-3.015,2.177c-0.566,1.2-0.68,2.787-0.316,4.827
						c0.362,2.039,1.02,3.513,1.948,4.419c0.952,0.931,2.132,1.248,3.582,0.998C687.921,792.568,688.941,791.866,689.508,790.666z"
						/>
					<path fill="#0668B3" d="M698.938,777.201l-5.01,1.655l-0.431-1.269l-0.431-1.271l13.396-4.419l0.43,1.269l0.431,1.269
						l-5.009,1.655l4.578,13.895l-1.699,0.566l-1.7,0.566L698.938,777.201z"/>
					<path fill="#0668B3" d="M717.002,786.132l-7.616-15.549l10.245-5.009l0.589,1.201l0.59,1.2l-7.049,3.446l1.881,3.853
						l6.618-3.24l0.589,1.2l0.59,1.201l-6.618,3.243l2.177,4.441l7.252-3.559l0.59,1.2l0.59,1.203L717.002,786.132z"/>
					<path fill="#0668B3" d="M740.144,766.094c1.02,1.385,1.27,2.947,0.748,4.671c-0.522,1.745-1.655,3.195-3.4,4.353
						c-2.107,1.404-4.147,1.836-6.098,1.291c-1.949-0.544-3.738-2.039-5.348-4.487c-1.633-2.448-2.29-4.691-1.995-6.71
						c0.295-2.039,1.519-3.762,3.694-5.213c1.678-1.11,3.4-1.563,5.122-1.359c1.656,0.203,2.901,0.951,3.74,2.243l0.136,0.227
						l-2.924,1.949c-0.635-0.793-1.382-1.246-2.221-1.359c-0.84-0.112-1.7,0.113-2.561,0.703c-1.157,0.771-1.747,1.791-1.747,3.104
						c-0.022,1.292,0.545,2.811,1.701,4.511s2.312,2.812,3.535,3.285c1.224,0.477,2.402,0.318,3.581-0.452
						c0.907-0.612,1.45-1.314,1.655-2.176c0.203-0.839,0.023-1.723-0.521-2.628L740.144,766.094z"/>
					<path fill="#0668B3" d="M740.301,754.31l-3.966,3.49l-0.883-1.02l-0.885-1.021l10.585-9.315l0.884,1.02l0.885,1.021
						l-3.944,3.49l9.655,10.971l-1.337,1.178l-1.337,1.178L740.301,754.31z"/>
					<path fill="#0668B3" d="M746.898,744.359l1.224-1.314l1.224-1.314l12.67,11.808l-1.223,1.315l-1.225,1.314L746.898,744.359z"/>
					<path fill="#0668B3" d="M765.234,747.011c-2.04,0.182-4.239-0.59-6.596-2.357c-2.357-1.745-3.74-3.626-4.171-5.621
						c-0.408-1.994,0.159-4.057,1.7-6.165c1.563-2.107,3.354-3.241,5.395-3.423c2.04-0.181,4.238,0.613,6.596,2.357
						c2.356,1.747,3.762,3.627,4.17,5.622c0.408,1.994-0.158,4.057-1.699,6.165C769.064,745.674,767.273,746.829,765.234,747.011z
						 M769.155,738.329c-0.408-1.245-1.428-2.492-3.083-3.716c-1.653-1.225-3.127-1.858-4.441-1.882
						c-1.315-0.022-2.403,0.544-3.287,1.723c-0.861,1.179-1.111,2.38-0.703,3.648c0.409,1.271,1.429,2.494,3.083,3.719
						c1.654,1.224,3.151,1.857,4.465,1.881c1.314,0.021,2.403-0.545,3.287-1.724C769.337,740.801,769.563,739.576,769.155,738.329z"
						/>
					<path fill="#0668B3" d="M779.648,729.104l-0.746,1.451l-0.749,1.451l-15.367-7.978l1.156-2.2l1.156-2.199l14.483,0.454
						l-11.583-6.008l0.748-1.449l0.748-1.451l15.368,7.98l-1.134,2.175l-1.134,2.176l-14.665-0.453L779.648,729.104z"/>
					<path fill="#0668B3" d="M774.754,695.923l0.566-2.2l0.59-2.22l18.382-1.859l-0.477,1.859l-0.476,1.858l-3.876,0.271
						l-1.858,7.096l3.264,2.108l-0.476,1.835l-0.476,1.836L774.754,695.923z M785.203,699.187l1.404-5.349l-8.612,0.611l0,0
						L785.203,699.187z"/>
					<path fill="#0668B3" d="M795.97,678.629c-0.341,2.969-1.361,5.123-3.061,6.482c-1.7,1.359-4.012,1.882-6.913,1.541
						c-2.742-0.316-4.828-1.337-6.255-3.059c-1.429-1.724-1.995-3.899-1.701-6.507c0.272-2.243,0.952-3.897,2.087-4.94
						c1.131-1.043,2.65-1.45,4.577-1.224l-0.408,3.489c-1.11-0.112-1.949,0.068-2.516,0.567c-0.567,0.476-0.907,1.314-1.043,2.472
						c-0.182,1.607,0.204,2.9,1.201,3.897s2.471,1.608,4.488,1.835c2.039,0.228,3.648-0.021,4.827-0.792
						c1.156-0.77,1.859-2.018,2.041-3.74c0.112-0.907,0.091-1.882-0.068-2.991l-3.785-0.432l-0.386,3.287l-2.675-0.317l0.794-6.846
						l8.59,0.998C796.149,674.458,796.218,676.544,795.97,678.629z"/>
					<path fill="#0668B3" d="M796.49,666.503l-17.317,0.43l-0.271-11.423l1.336-0.022l1.338-0.022l0.181,7.842l4.285-0.113
						l-0.182-7.366l1.337-0.023l1.338-0.022l0.181,7.367l4.964-0.114l-0.204-8.069l1.338-0.023l1.336-0.022L796.49,666.503z"/>
					<path fill="#0668B3" d="M795.176,645.967l0.271,1.609l0.273,1.609l-17.067,2.901l-0.409-2.448l-0.407-2.447l11.831-8.387
						l-12.874,2.199l-0.272-1.609l-0.271-1.609l17.045-2.924l0.407,2.425l0.408,2.425l-11.968,8.477L795.176,645.967z"/>
					<path fill="#0668B3" d="M782.029,617.59c1.609-0.612,3.174-0.431,4.715,0.521s2.629,2.448,3.286,4.443
						c0.794,2.425,0.658,4.488-0.385,6.232c-1.043,1.723-2.947,3.06-5.757,3.967c-2.788,0.907-5.124,0.952-7.004,0.136
						c-1.882-0.816-3.218-2.47-4.035-4.963c-0.635-1.926-0.612-3.695,0.068-5.281c0.635-1.542,1.678-2.539,3.15-3.015l0.249-0.09
						l1.088,3.332c-0.93,0.409-1.563,0.997-1.903,1.768s-0.34,1.655-0.022,2.652c0.431,1.315,1.27,2.153,2.516,2.516
						c1.246,0.363,2.855,0.227,4.805-0.431s3.332-1.473,4.126-2.516c0.792-1.043,0.951-2.244,0.521-3.581
						c-0.341-1.043-0.885-1.769-1.654-2.177c-0.771-0.408-1.655-0.476-2.676-0.204L782.029,617.59z"/>
					<path fill="#0668B3" d="M777.541,610.156l-6.821,10.245l-0.952-1.927l-0.951-1.927l5.145-6.958l0,0l-8.591-0.046l-0.839-1.677
						l-0.839-1.677l12.263,0.793l5.96-2.946l0.795,1.609l0.793,1.609L777.541,610.156z"/>
				</g>
			</g>
			<circle fill="#0668B3" cx="761.563" cy="589.847" r="4.987"/>
			<circle fill="#0668B3" cx="563.464" cy="590.754" r="4.986"/>
		</g>
	</g>
</g>
</svg>
