<?xml version="1.0" encoding="UTF-8"?>
<!DOCTYPE svg  PUBLIC '-//W3C//DTD SVG 1.1//EN'  'http://www.w3.org/Graphics/SVG/1.1/DTD/svg11.dtd'>
<svg width="300.66" height="300.66" enable-background="new 512.92 512.92 300.66 300.66" version="1.1" viewBox="512.92 512.92 300.66 300.66" xml:space="preserve" xmlns="http://www.w3.org/2000/svg" xmlns:xlink="http://www.w3.org/1999/xlink">
		<defs>
			<rect id="i" x="512.92" y="512.92" width="300.66" height="300.66"/>
		</defs>
		<clipPath id="h">
			<use overflow="visible" xlink:href="#i"/>
		</clipPath>
			<circle cx="663.46" cy="663.24" r="145.47" clip-path="url(#h)" fill="#fff" stroke="#0668B3" stroke-width="6.7997"/>
		<defs>
			<rect id="g" x="512.92" y="512.92" width="300.66" height="300.66"/>
		</defs>
		<clipPath id="f">
			<use overflow="visible" xlink:href="#g"/>
		</clipPath>
		<g clip-path="url(#f)">
			<path d="m711.77 632.39c0 8.953-6.075 16.206-13.577 16.206-4.941 0-9.248-3.15-11.628-7.842-2.38 4.692-6.709 7.842-11.627 7.842-4.964 0-9.316-3.173-11.673-7.91-2.38 4.737-6.709 7.91-11.673 7.91-4.941 0-9.248-3.15-11.627-7.842-2.38 4.692-6.709 7.842-11.627 7.842-7.502 0-13.577-7.23-13.577-16.184 0.022 26.792 21.737 48.505 48.55 48.505 26.745 0 48.459-21.736 48.459-48.527z" fill="#0668B3"/>
			<path d="m628.29 648.6c4.941 0 9.248-3.15 11.627-7.842 2.379 4.692 6.709 7.842 11.627 7.842 4.964 0 9.316-3.173 11.673-7.91 2.38 4.737 6.71 7.91 11.673 7.91 4.941 0 9.248-3.15 11.628-7.842 2.38 4.692 6.709 7.842 11.627 7.842 7.503 0 13.577-7.253 13.577-16.206h-48.527-48.55v0.046c0.067 8.906 6.142 16.16 13.645 16.16z" fill="#2DA343"/>
			<path d="m663.24 583.84c-26.813 0-48.55 21.736-48.55 48.55h48.55c-7.298 0-13.214-5.916-13.214-13.214s5.916-13.214 13.214-13.214 13.213 5.916 13.213 13.214-5.915 13.214-13.213 13.214h48.55c-0.022-26.814-21.736-48.55-48.55-48.55z" fill="#0095D6"/>
		</g>
		<defs>
			<rect id="e" x="512.92" y="512.92" width="300.66" height="300.66"/>
		</defs>
		<clipPath id="d">
			<use overflow="visible" xlink:href="#e"/>
		</clipPath>
		<g clip-path="url(#d)" fill="#2DA343" stroke="#2DA343" stroke-width=".2267">
			<path d="m745.02 723.21c-10.901-5.893-23.413-9.246-36.672-9.246-17.84 0-34.249 6.052-47.327 16.205 10.902 5.916 23.413 9.248 36.673 9.248 17.838 0.023 34.247-6.052 47.326-16.207z"/>
			<path d="m665.46 730.17c-13.078-10.153-29.488-16.205-47.326-16.205-13.282 0-25.771 3.354-36.672 9.246 13.078 10.155 29.488 16.207 47.326 16.207 13.258 0.023 25.77-3.332 36.672-9.248z"/>
		</g>
		<defs>
			<rect id="c" x="512.92" y="512.92" width="300.66" height="300.66"/>
		</defs>
		<clipPath id="b">
			<use overflow="visible" xlink:href="#c"/>
		</clipPath>
			<line x1="663.24" x2="663.24" y1="684.48" y2="744.13" clip-path="url(#b)" fill="none" stroke="#2DA343" stroke-width="6.1197"/>
		<defs>
			<rect id="a" x="512.92" y="512.92" width="300.66" height="300.66"/>
		</defs>
		<clipPath id="l">
			<use overflow="visible" xlink:href="#a"/>
		</clipPath>
		<g clip-path="url(#l)" fill="none" stroke="#2DA343" stroke-width="6.7997">
			<path d="m740.51 658.96c-35.676 4.919-64.279 31.233-71.691 65.187 36.129-3.967 65.186-30.736 71.691-65.187z"/>
			<path d="m585.97 658.96c6.505 34.451 35.563 61.22 71.691 65.187-7.434-33.954-36.038-60.268-71.691-65.187z"/>
		</g>
		<defs>
			<rect id="k" x="512.92" y="512.92" width="300.66" height="300.66"/>
		</defs>
		<clipPath id="j">
			<use overflow="visible" xlink:href="#k"/>
		</clipPath>
		<g clip-path="url(#j)" fill="#0668B3">
					<path d="m588.06 566.5c1.564 1.769 2.312 3.514 2.199 5.236-0.091 1.723-1.042 3.377-2.788 4.941s-3.491 2.289-5.236 2.198c-1.723-0.09-3.377-1.02-4.941-2.787l-6.936-7.797 1.337-1.179 1.337-1.179 7.525 8.455c0.793 0.884 1.631 1.36 2.493 1.404 0.861 0.046 1.745-0.316 2.652-1.11 0.884-0.793 1.36-1.632 1.405-2.493s-0.317-1.746-1.111-2.652l-7.525-8.454 1.337-1.179 1.337-1.179 6.915 7.775z"/>
					<path d="m597.71 568.04l-1.36 0.885-1.36 0.883-9.406-14.529 2.085-1.36 2.085-1.36 12.353 7.548-7.095-10.971 1.36-0.883 1.36-0.885 9.406 14.529-2.063 1.338-2.063 1.336-12.511-7.661 7.209 11.13z"/>
					<path d="m602.22 545.15l1.586-0.816 1.586-0.816 7.82 15.458-1.586 0.816-1.586 0.816-7.82-15.458z"/>
					<path d="m614.6 542.38l-4.918 1.904-0.499-1.247-0.499-1.246 13.146-5.123 0.499 1.247 0.499 1.247-4.918 1.904 5.303 13.622-1.654 0.657-1.654 0.657-5.305-13.622z"/>
					<path d="m630.12 552.27l-4.147-16.795 11.083-2.743 0.317 1.314 0.317 1.314-7.616 1.881 1.02 4.148 7.14-1.768 0.317 1.315 0.317 1.314-7.14 1.768 1.202 4.805 7.842-1.949 0.317 1.314 0.318 1.314-11.287 2.768z"/>
					<path d="m641.84 531.8l1.768-0.182 5.055-0.521c2.561-0.272 4.646 0.294 6.232 1.655 1.61 1.382 2.539 3.4 2.811 6.097 0.294 2.81-0.294 5.032-1.767 6.664-1.474 1.632-3.786 2.606-6.914 2.947l-3.627 0.385-1.768 0.182-1.79-17.227zm5.077 14.166l2.471-0.249c1.791-0.182 3.105-0.839 3.921-1.95 0.816-1.11 1.134-2.628 0.929-4.556-0.204-1.904-0.839-3.309-1.904-4.238s-2.494-1.292-4.284-1.11l-2.38 0.249 1.247 11.854z"/>
					<path d="m679.47 536.24c0.067-0.794-0.137-1.428-0.567-1.904-0.453-0.499-1.089-0.771-1.949-0.884-0.793-0.09-1.495 0.045-2.063 0.408-0.566 0.362-0.906 0.862-0.975 1.473-0.068 0.521 0.136 0.998 0.59 1.405 0.453 0.408 1.292 0.861 2.538 1.405l2.131 0.907c1.428 0.612 2.403 1.292 2.924 2.04 0.545 0.748 0.748 1.723 0.612 2.901-0.182 1.586-0.951 2.81-2.335 3.672-1.382 0.861-3.082 1.201-5.076 0.975-2.313-0.25-3.99-0.929-5.011-2.017-0.996-1.066-1.404-2.539-1.201-4.42l0.023-0.158 3.49 0.385c-0.159 0.998 0.022 1.814 0.544 2.425 0.521 0.612 1.337 0.997 2.425 1.111 0.952 0.113 1.768-0.023 2.472-0.408 0.679-0.385 1.064-0.929 1.133-1.609 0.045-0.454-0.113-0.839-0.454-1.179-0.362-0.34-1.042-0.725-2.039-1.156l-2.131-0.907c-1.654-0.725-2.81-1.474-3.444-2.243-0.636-0.771-0.885-1.723-0.748-2.879 0.181-1.609 0.905-2.856 2.197-3.763s2.856-1.247 4.692-1.042c2.063 0.227 3.604 0.861 4.624 1.881 0.93 0.952 1.314 2.154 1.156 3.582l-0.046 0.385-3.512-0.386z"/>
					<path d="m691.64 536.29l-5.122-1.247 0.317-1.314 0.317-1.315 13.712 3.355-0.317 1.314-0.317 1.315-5.122-1.247-3.49 14.188-1.723-0.431-1.723-0.43 3.468-14.188z"/>
					<path d="m708 538.35l2.13 0.816 2.13 0.839-0.271 18.472-1.79-0.703-1.791-0.703 0.181-3.875-6.846-2.652-2.47 2.992-1.768-0.68-1.768-0.703 12.263-13.803zm-4.442 10.018l5.145 1.995 0.385-8.636-5.53 6.641z"/>
					<path d="m722.67 547.87l-4.624-2.539 0.658-1.178 0.656-1.179 12.377 6.777-0.658 1.179-0.657 1.178-4.624-2.539-7.027 12.829-1.563-0.861-1.564-0.861 7.026-12.806z"/>
					<path d="m723.55 565.12l9.949-14.167 9.339 6.574-0.771 1.11-0.77 1.111-6.415-4.51-2.47 3.49 6.028 4.238-0.771 1.111-0.771 1.11-6.028-4.239-2.856 4.035 6.598 4.647-0.772 1.11-0.771 1.111-9.519-6.731z"/>
					<path d="m749.84 570.08c0.521-0.589 0.727-1.224 0.658-1.881s-0.431-1.269-1.065-1.858c-0.589-0.544-1.225-0.839-1.903-0.884-0.681-0.045-1.225 0.159-1.656 0.612-0.361 0.386-0.476 0.884-0.361 1.474 0.112 0.589 0.521 1.473 1.224 2.629l1.179 1.995c0.793 1.337 1.179 2.448 1.156 3.377 0 0.906-0.408 1.813-1.225 2.697-1.089 1.178-2.425 1.7-4.058 1.586-1.632-0.113-3.196-0.861-4.668-2.221-1.724-1.564-2.675-3.105-2.856-4.602-0.181-1.45 0.362-2.879 1.654-4.284l0.113-0.113 2.584 2.38c-0.726 0.725-1.043 1.473-0.997 2.289 0.068 0.816 0.498 1.586 1.314 2.335 0.703 0.657 1.451 1.02 2.244 1.11 0.771 0.09 1.405-0.114 1.881-0.634 0.318-0.34 0.408-0.749 0.318-1.225-0.091-0.476-0.409-1.202-0.953-2.131l-1.179-1.994c-0.929-1.563-1.404-2.833-1.45-3.83-0.046-0.998 0.317-1.927 1.088-2.788 1.088-1.202 2.425-1.769 3.989-1.745 1.563 0.022 3.037 0.68 4.42 1.927 1.541 1.405 2.402 2.833 2.606 4.238 0.182 1.315-0.204 2.516-1.178 3.581l-0.273 0.272-2.606-2.312z"/>
					<path d="m545.31 603.6l15.707 7.275-4.827 10.381-1.225-0.567-1.224-0.566 3.309-7.118-3.875-1.79-3.105 6.686-1.224-0.567-1.224-0.566 3.105-6.686-4.488-2.085-3.4 7.32-1.224-0.566-1.224-0.567 4.919-10.584z"/>
					<path d="m537.47 622.37l0.476-1.564 0.476-1.564 16.591 4.941-0.703 2.379-0.703 2.38-14.302 2.267 12.511 3.74-0.476 1.564-0.477 1.563-16.591-4.94 0.703-2.357 0.702-2.357 14.483-2.289-12.69-3.763z"/>
					<path d="m550.16 640.73l-0.249 1.926-0.25 1.927-13.939 2.924 12.692 6.438-0.226 1.745-0.227 1.745-16.319-8.749 0.25-1.881 0.249-1.882 18.019-4.193z"/>
					<path d="m548.14 659.59l-0.045 1.791-0.045 1.791-17.294-0.453 0.046-1.791 0.045-1.791 17.293 0.453z"/>
					<path d="m547.94 667.41l0.136 1.768 0.409 5.168c0.158 2.018-0.091 3.604-0.794 4.759-0.68 1.135-1.746 1.769-3.195 1.883-1.474 0.113-2.629-0.386-3.468-1.475-0.408-0.543-0.748-1.2-0.997-1.993-0.045 0.702-0.158 1.247-0.317 1.655-0.34 0.883-1.065 1.404-2.176 1.631-1.111 0.205-2.085 0.431-2.924 0.635l-0.249 0.067c-0.635 0.182-1.134 0.317-1.542 0.476-0.385 0.137-0.748 0.295-1.088 0.477l-0.158-1.881-0.159-1.882c0.227-0.09 0.521-0.203 0.93-0.294 0.385-0.091 0.975-0.227 1.723-0.385l1.519-0.296c1.133-0.227 1.881-0.521 2.198-0.861 0.318-0.362 0.454-1.021 0.386-1.995l-0.25-3.037-7.004 0.568-0.136-1.792-0.136-1.79 17.292-1.406zm-7.298 4.149l0.182 2.199c0.091 1.268 0.385 2.242 0.861 2.878 0.477 0.634 1.111 0.928 1.882 0.884 0.793-0.067 1.382-0.408 1.745-1.042 0.362-0.637 0.521-1.497 0.43-2.607l-0.204-2.699-4.896 0.387z"/>
					<path d="m534.63 687.67c1.179-1.677 3.218-2.833 6.075-3.49 2.856-0.658 5.19-0.477 6.98 0.499 1.791 0.997 2.97 2.765 3.559 5.303 0.589 2.562 0.272 4.67-0.906 6.324-1.201 1.655-3.219 2.811-6.074 3.469-2.879 0.656-5.191 0.476-6.981-0.499-1.791-0.997-2.969-2.765-3.558-5.305-0.591-2.515-0.296-4.623 0.905-6.301zm4.012 8.636c1.224 0.499 2.833 0.522 4.827 0.069 1.995-0.454 3.445-1.18 4.329-2.154 0.884-0.976 1.156-2.199 0.839-3.627-0.317-1.427-1.087-2.379-2.312-2.9-1.224-0.499-2.834-0.544-4.828-0.092-2.017 0.454-3.445 1.18-4.329 2.154s-1.156 2.197-0.816 3.604c0.318 1.473 1.066 2.424 2.29 2.946z"/>
					<path d="m538.49 709.36l-0.589-1.518-0.59-1.52 16.093-6.369 0.906 2.313 0.906 2.311-9.837 10.63 12.149-4.804 0.589 1.519 0.59 1.519-16.093 6.368-0.906-2.288-0.906-2.29 9.95-10.766-12.262 4.895z"/>
					<path d="m546.74 727.93l-0.839-1.385-0.839-1.38 14.778-9 1.541 2.516 1.542 2.538-9.882 10.224 13.6-4.104 1.542 2.517 1.541 2.539-14.777 8.998-0.839-1.382-0.839-1.383 13.667-8.318-15.957 4.578-0.975-1.609-0.975-1.608 11.31-11.991-13.599 8.25z"/>
					<path d="m558.84 746.24l13.191-11.22 7.389 8.703-1.02 0.862-1.021 0.861-5.077-5.985-3.264 2.767 4.782 5.621-1.02 0.861-1.021 0.861-4.78-5.62-3.785 3.219 5.235 6.142-1.02 0.862-1.02 0.861-7.569-8.795z"/>
					<path d="m572.26 760.93l-1.224-1.089-1.224-1.089 11.514-12.94 1.858 1.653 1.859 1.655-3.99 13.916 8.682-9.768 1.224 1.087 1.224 1.089-11.514 12.94-1.836-1.631-1.836-1.632 4.034-14.1-8.771 9.909z"/>
					<path d="m597.19 762.22l-4.397-2.902 0.748-1.133 0.748-1.133 11.786 7.752-0.748 1.133-0.748 1.134-4.397-2.901-8.024 12.216-1.496-0.975-1.496-0.975 8.024-12.216z"/>
					<path d="m611.33 767.46l2.04 0.998 2.063 0.996-1.722 18.383-1.723-0.839-1.723-0.839 0.476-3.854-6.619-3.195-2.697 2.789-1.7-0.817-1.723-0.839 13.328-12.783zm-5.212 9.634l4.986 2.401 1.042-8.589-6.028 6.188z"/>
					<path d="m618.27 789.37l5.281-16.479 1.7 0.545 1.7 0.543-4.465 13.919 6.868 2.197-0.408 1.292-0.408 1.291-10.268-3.308z"/>
					<path d="m644.31 778.43l1.769 0.204 4.828 0.566c1.904 0.227 3.287 0.861 4.193 1.881 0.907 1.043 1.247 2.425 1.043 4.125-0.204 1.746-0.907 2.992-2.085 3.764-1.178 0.77-2.833 1.02-4.94 0.77l-2.517-0.294-0.77 6.551-1.769-0.205-1.768-0.203 2.016-17.159zm2.606 8.387l1.949 0.227c1.133 0.135 2.018 0 2.674-0.386 0.658-0.386 1.021-0.997 1.133-1.837 0.091-0.86-0.09-1.541-0.566-2.062s-1.201-0.839-2.176-0.953l-2.379-0.271-0.635 5.282z"/>
					<path d="m659.64 779.99l1.791-0.045 5.168-0.113c2.039-0.045 3.604 0.316 4.691 1.064 1.11 0.748 1.655 1.859 1.699 3.311 0.023 1.474-0.521 2.583-1.677 3.376-0.566 0.386-1.247 0.68-2.063 0.861 0.681 0.091 1.247 0.227 1.632 0.432 0.862 0.407 1.36 1.155 1.496 2.266s0.295 2.108 0.453 2.946l0.045 0.25c0.137 0.636 0.25 1.156 0.387 1.563 0.112 0.408 0.248 0.771 0.407 1.11l-1.882 0.046-1.881 0.045c-0.091-0.227-0.159-0.543-0.25-0.928-0.067-0.409-0.18-0.975-0.294-1.746l-0.204-1.541c-0.158-1.155-0.407-1.904-0.747-2.244-0.34-0.341-0.998-0.522-1.973-0.499l-3.037 0.067 0.136 7.027-1.791 0.045-1.791 0.045-0.315-17.338zm3.718 7.503l2.222-0.046c1.269-0.022 2.243-0.249 2.923-0.68s0.997-1.043 0.976-1.835c-0.023-0.794-0.318-1.406-0.93-1.814s-1.474-0.611-2.584-0.591l-2.697 0.048 0.09 4.918z"/>
					<path d="m680.69 794.27c-1.609-1.269-2.675-3.354-3.174-6.232-0.521-2.902-0.226-5.214 0.839-6.959 1.066-1.745 2.901-2.833 5.463-3.31 2.584-0.453 4.668-0.045 6.277 1.225 1.609 1.269 2.676 3.355 3.174 6.233 0.521 2.901 0.227 5.212-0.838 6.958-1.065 1.745-2.901 2.833-5.485 3.31-2.561 0.452-4.646 0.044-6.256-1.225zm8.817-3.603c0.567-1.18 0.658-2.789 0.318-4.828-0.363-2.018-0.998-3.49-1.949-4.421-0.93-0.929-2.132-1.246-3.582-0.997-1.428 0.25-2.447 0.975-3.015 2.177-0.566 1.2-0.68 2.787-0.316 4.827 0.362 2.039 1.02 3.513 1.948 4.419 0.952 0.931 2.132 1.248 3.582 0.998 1.427-0.273 2.447-0.975 3.014-2.175z"/>
					<path d="m698.94 777.2l-5.01 1.655-0.431-1.269-0.431-1.271 13.396-4.419 0.43 1.269 0.431 1.269-5.009 1.655 4.578 13.895-1.699 0.566-1.7 0.566-4.555-13.916z"/>
					<path d="m717 786.13l-7.616-15.549 10.245-5.009 0.589 1.201 0.59 1.2-7.049 3.446 1.881 3.853 6.618-3.24 0.589 1.2 0.59 1.201-6.618 3.243 2.177 4.441 7.252-3.559 0.59 1.2 0.59 1.203-10.428 5.169z"/>
					<path d="m740.14 766.09c1.02 1.385 1.27 2.947 0.748 4.671-0.522 1.745-1.655 3.195-3.4 4.353-2.107 1.404-4.147 1.836-6.098 1.291-1.949-0.544-3.738-2.039-5.348-4.487-1.633-2.448-2.29-4.691-1.995-6.71 0.295-2.039 1.519-3.762 3.694-5.213 1.678-1.11 3.4-1.563 5.122-1.359 1.656 0.203 2.901 0.951 3.74 2.243l0.136 0.227-2.924 1.949c-0.635-0.793-1.382-1.246-2.221-1.359-0.84-0.112-1.7 0.113-2.561 0.703-1.157 0.771-1.747 1.791-1.747 3.104-0.022 1.292 0.545 2.811 1.701 4.511s2.312 2.812 3.535 3.285c1.224 0.477 2.402 0.318 3.581-0.452 0.907-0.612 1.45-1.314 1.655-2.176 0.203-0.839 0.023-1.723-0.521-2.628l2.903-1.953z"/>
					<path d="m740.3 754.31l-3.966 3.49-0.883-1.02-0.885-1.021 10.585-9.315 0.884 1.02 0.885 1.021-3.944 3.49 9.655 10.971-1.337 1.178-1.337 1.178-9.657-10.992z"/>
					<path d="m746.9 744.36l1.224-1.314 1.224-1.314 12.67 11.808-1.223 1.315-1.225 1.314-12.67-11.809z"/>
					<path d="m765.23 747.01c-2.04 0.182-4.239-0.59-6.596-2.357-2.357-1.745-3.74-3.626-4.171-5.621-0.408-1.994 0.159-4.057 1.7-6.165 1.563-2.107 3.354-3.241 5.395-3.423 2.04-0.181 4.238 0.613 6.596 2.357 2.356 1.747 3.762 3.627 4.17 5.622 0.408 1.994-0.158 4.057-1.699 6.165-1.565 2.085-3.356 3.24-5.395 3.422zm3.921-8.682c-0.408-1.245-1.428-2.492-3.083-3.716-1.653-1.225-3.127-1.858-4.441-1.882-1.315-0.022-2.403 0.544-3.287 1.723-0.861 1.179-1.111 2.38-0.703 3.648 0.409 1.271 1.429 2.494 3.083 3.719 1.654 1.224 3.151 1.857 4.465 1.881 1.314 0.021 2.403-0.545 3.287-1.724 0.861-1.177 1.087-2.402 0.679-3.649z"/>
					<path d="m779.65 729.1l-0.746 1.451-0.749 1.451-15.367-7.978 1.156-2.2 1.156-2.199 14.483 0.454-11.583-6.008 0.748-1.449 0.748-1.451 15.368 7.98-1.134 2.175-1.134 2.176-14.665-0.453 11.719 6.051z"/>
					<path d="m774.75 695.92l0.566-2.2 0.59-2.22 18.382-1.859-0.477 1.859-0.476 1.858-3.876 0.271-1.858 7.096 3.264 2.108-0.476 1.835-0.476 1.836-15.163-10.584zm10.449 3.264l1.404-5.349-8.612 0.611 7.208 4.738z"/>
					<path d="m795.97 678.63c-0.341 2.969-1.361 5.123-3.061 6.482s-4.012 1.882-6.913 1.541c-2.742-0.316-4.828-1.337-6.255-3.059-1.429-1.724-1.995-3.899-1.701-6.507 0.272-2.243 0.952-3.897 2.087-4.94 1.131-1.043 2.65-1.45 4.577-1.224l-0.408 3.489c-1.11-0.112-1.949 0.068-2.516 0.567-0.567 0.476-0.907 1.314-1.043 2.472-0.182 1.607 0.204 2.9 1.201 3.897s2.471 1.608 4.488 1.835c2.039 0.228 3.648-0.021 4.827-0.792 1.156-0.77 1.859-2.018 2.041-3.74 0.112-0.907 0.091-1.882-0.068-2.991l-3.785-0.432-0.386 3.287-2.675-0.317 0.794-6.846 8.59 0.998c0.385 2.109 0.454 4.195 0.206 6.28z"/>
					<path d="m796.49 666.5l-17.317 0.43-0.271-11.423 1.336-0.022 1.338-0.022 0.181 7.842 4.285-0.113-0.182-7.366 1.337-0.023 1.338-0.022 0.181 7.367 4.964-0.114-0.204-8.069 1.338-0.023 1.336-0.022 0.34 11.58z"/>
					<path d="m795.18 645.97l0.271 1.609 0.273 1.609-17.067 2.901-0.409-2.448-0.407-2.447 11.831-8.387-12.874 2.199-0.272-1.609-0.271-1.609 17.045-2.924 0.407 2.425 0.408 2.425-11.968 8.477 13.033-2.221z"/>
					<path d="m782.03 617.59c1.609-0.612 3.174-0.431 4.715 0.521s2.629 2.448 3.286 4.443c0.794 2.425 0.658 4.488-0.385 6.232-1.043 1.723-2.947 3.06-5.757 3.967-2.788 0.907-5.124 0.952-7.004 0.136-1.882-0.816-3.218-2.47-4.035-4.963-0.635-1.926-0.612-3.695 0.068-5.281 0.635-1.542 1.678-2.539 3.15-3.015l0.249-0.09 1.088 3.332c-0.93 0.409-1.563 0.997-1.903 1.768s-0.34 1.655-0.022 2.652c0.431 1.315 1.27 2.153 2.516 2.516s2.855 0.227 4.805-0.431 3.332-1.473 4.126-2.516c0.792-1.043 0.951-2.244 0.521-3.581-0.341-1.043-0.885-1.769-1.654-2.177-0.771-0.408-1.655-0.476-2.676-0.204l-1.088-3.309z"/>
					<path d="m777.54 610.16l-6.821 10.245-0.952-1.927-0.951-1.927 5.145-6.958-8.591-0.046-0.839-1.677-0.839-1.677 12.263 0.793 5.96-2.946 0.795 1.609 0.793 1.609-5.963 2.902z"/>
			<circle cx="761.56" cy="589.85" r="4.987"/>
			<circle cx="563.46" cy="590.75" r="4.986"/>
		</g>
</svg>
