<?xml version="1.0" encoding="utf-8"?>
<!-- Generator: Adobe Illustrator 15.1.0, SVG Export Plug-In  -->
<!DOCTYPE svg PUBLIC "-//W3C//DTD SVG 1.1//EN" "http://www.w3.org/Graphics/SVG/1.1/DTD/svg11.dtd" [
	<!ENTITY ns_flows "http://ns.adobe.com/Flows/1.0/">
]>
<svg version="1.1"
	 xmlns="http://www.w3.org/2000/svg" xmlns:xlink="http://www.w3.org/1999/xlink" xmlns:a="http://ns.adobe.com/AdobeSVGViewerExtensions/3.0/"
	 x="0px" y="0px" width="81px" height="80px" viewBox="-0.4 0.2 81 80" enable-background="new -0.4 0.2 81 80"
	 xml:space="preserve">
<defs>
</defs>
<g>
	<defs>
		<rect id="SVGID_1_" width="80" height="80"/>
	</defs>
	<clipPath id="SVGID_2_">
		<use xlink:href="#SVGID_1_"  overflow="visible"/>
	</clipPath>
	<circle clip-path="url(#SVGID_2_)" fill="#FFFFFF" stroke="#0668B3" stroke-width="1.8093" cx="40.1" cy="40" r="38.7"/>
	<g clip-path="url(#SVGID_2_)">
		<path fill="#0668B3" d="M52.9,31.8c0,2.4-1.6,4.3-3.6,4.3c-1.3,0-2.5-0.8-3.1-2.1c-0.6,1.3-1.8,2.1-3.1,2.1
			c-1.3,0-2.5-0.8-3.1-2.1c-0.6,1.3-1.8,2.1-3.1,2.1c-1.3,0-2.5-0.8-3.1-2.1c-0.6,1.3-1.8,2.1-3.1,2.1c-2,0-3.6-1.9-3.6-4.3
			c0,7.1,5.8,12.9,12.9,12.9C47.1,44.7,52.9,38.9,52.9,31.8L52.9,31.8L52.9,31.8z"/>
		<path fill="#2DA343" d="M30.7,36.1c1.3,0,2.5-0.8,3.1-2.1c0.6,1.3,1.8,2.1,3.1,2.1c1.3,0,2.5-0.8,3.1-2.1c0.6,1.3,1.8,2.1,3.1,2.1
			c1.3,0,2.5-0.8,3.1-2.1c0.6,1.3,1.8,2.1,3.1,2.1c2,0,3.6-1.9,3.6-4.3c0,0,0,0,0,0c-0.1,0-6.5,0-12.9,0c-6.5,0-12.9,0-12.9,0
			c0,0,0,0,0,0c0,0,0,0,0,0C27.1,34.2,28.7,36.1,30.7,36.1z"/>
		<path fill="#0095D6" d="M40,18.9c-7.1,0-12.9,5.8-12.9,12.9c0,0,0,0,0,0c0,0,6.5,0,12.9,0c-1.9,0-3.5-1.6-3.5-3.5
			c0-1.9,1.6-3.5,3.5-3.5s3.5,1.6,3.5,3.5c0,1.9-1.6,3.5-3.5,3.5c6.5,0,12.9,0,12.9,0c0,0,0,0,0,0C52.9,24.7,47.1,18.9,40,18.9z"/>
	</g>
	<g clip-path="url(#SVGID_2_)">
		<path fill="#2DA343" stroke="#2DA343" stroke-width="6.031064e-002" d="M61.8,56c-2.9-1.6-6.2-2.5-9.8-2.5
			c-4.7,0-9.1,1.6-12.6,4.3c2.9,1.6,6.2,2.5,9.8,2.5C53.9,60.3,58.3,58.7,61.8,56z"/>
		<path fill="#2DA343" stroke="#2DA343" stroke-width="6.031064e-002" d="M40.6,57.8c-3.5-2.7-7.8-4.3-12.6-4.3
			c-3.5,0-6.9,0.9-9.8,2.5c3.5,2.7,7.8,4.3,12.6,4.3C34.4,60.3,37.7,59.4,40.6,57.8z"/>
	</g>
	<line clip-path="url(#SVGID_2_)" fill="none" stroke="#2DA343" stroke-width="1.6284" x1="40" y1="45.6" x2="40" y2="61.5"/>
	<g clip-path="url(#SVGID_2_)">
		<path fill="none" stroke="#2DA343" stroke-width="1.8093" d="M60.6,38.9c-9.5,1.3-17.1,8.3-19.1,17.3C51.1,55.1,58.8,48,60.6,38.9
			z"/>
		<path fill="none" stroke="#2DA343" stroke-width="1.8093" d="M19.4,38.9c1.7,9.2,9.5,16.3,19.1,17.3
			C36.5,47.2,28.9,40.2,19.4,38.9z"/>
	</g>
	<g clip-path="url(#SVGID_2_)">
		<g>
			<g>
				<path fill="#0668B3" d="M20,14.3c0.4,0.5,0.6,0.9,0.6,1.4c0,0.5-0.3,0.9-0.7,1.3c-0.5,0.4-0.9,0.6-1.4,0.6s-0.9-0.3-1.3-0.7
					l-1.8-2.1l0.4-0.3l0.4-0.3l2,2.2c0.2,0.2,0.4,0.4,0.7,0.4c0.2,0,0.5-0.1,0.7-0.3s0.4-0.4,0.4-0.7c0-0.2-0.1-0.5-0.3-0.7l-2-2.2
					l0.4-0.3l0.4-0.3L20,14.3z"/>
				<path fill="#0668B3" d="M22.6,14.7l-0.4,0.2l-0.4,0.2l-2.5-3.9l0.6-0.4l0.6-0.4l3.3,2l-1.9-2.9l0.4-0.2l0.4-0.2l2.5,3.9
					l-0.5,0.4L24,13.7l-3.3-2L22.6,14.7z"/>
				<path fill="#0668B3" d="M23.8,8.6l0.4-0.2l0.4-0.2l2.1,4.1l-0.4,0.2l-0.4,0.2L23.8,8.6z"/>
				<path fill="#0668B3" d="M27.1,7.8l-1.3,0.5L25.6,8l-0.1-0.3L29,6.3l0.1,0.3L29.2,7l-1.3,0.5l1.4,3.6l-0.4,0.2l-0.4,0.2L27.1,7.8
					z"/>
				<path fill="#0668B3" d="M31.2,10.5L30.1,6L33,5.3l0.1,0.3L33.2,6l-2,0.5l0.3,1.1l1.9-0.5l0.1,0.3l0.1,0.3l-1.9,0.5l0.3,1.3L34,9
					l0.1,0.3l0.1,0.3L31.2,10.5z"/>
				<path fill="#0668B3" d="M34.3,5l0.5,0l1.3-0.1c0.7-0.1,1.2,0.1,1.7,0.4c0.4,0.4,0.7,0.9,0.8,1.6c0.1,0.7-0.1,1.3-0.5,1.8
					c-0.4,0.4-1,0.7-1.8,0.8l-1,0.1l-0.5,0L34.3,5z M35.7,8.8l0.7-0.1c0.5-0.1,0.8-0.2,1-0.5c0.2-0.3,0.3-0.7,0.2-1.2
					c-0.1-0.5-0.2-0.9-0.5-1.1c-0.3-0.2-0.7-0.3-1.1-0.3l-0.6,0.1L35.7,8.8z"/>
				<path fill="#0668B3" d="M44.3,6.2c0-0.2,0-0.4-0.2-0.5c-0.1-0.1-0.3-0.2-0.5-0.2c-0.2,0-0.4,0-0.5,0.1c-0.2,0.1-0.2,0.2-0.3,0.4
					c0,0.1,0,0.3,0.2,0.4c0.1,0.1,0.3,0.2,0.7,0.4L44.2,7c0.4,0.2,0.6,0.3,0.8,0.5c0.1,0.2,0.2,0.5,0.2,0.8c0,0.4-0.3,0.7-0.6,1
					s-0.8,0.3-1.4,0.3c-0.6-0.1-1.1-0.2-1.3-0.5c-0.3-0.3-0.4-0.7-0.3-1.2l0,0l0.9,0.1c0,0.3,0,0.5,0.1,0.6s0.4,0.3,0.6,0.3
					c0.3,0,0.5,0,0.7-0.1c0.2-0.1,0.3-0.2,0.3-0.4c0-0.1,0-0.2-0.1-0.3s-0.3-0.2-0.5-0.3L43,7.4c-0.4-0.2-0.7-0.4-0.9-0.6
					c-0.2-0.2-0.2-0.5-0.2-0.8c0-0.4,0.2-0.8,0.6-1c0.3-0.2,0.8-0.3,1.3-0.3c0.6,0.1,1,0.2,1.2,0.5c0.2,0.3,0.4,0.6,0.3,1l0,0.1
					L44.3,6.2z"/>
				<path fill="#0668B3" d="M47.6,6.2l-1.4-0.3l0.1-0.3l0.1-0.3L50,6.1l-0.1,0.3l-0.1,0.3l-1.4-0.3l-0.9,3.8l-0.5-0.1L46.6,10
					L47.6,6.2z"/>
				<path fill="#0668B3" d="M51.9,6.8L52.5,7L53,7.2L53,12.1l-0.5-0.2L52,11.8l0-1L50.2,10l-0.7,0.8l-0.5-0.2l-0.5-0.2L51.9,6.8z
					 M50.7,9.4l1.4,0.5l0.1-2.3l0,0L50.7,9.4z"/>
				<path fill="#0668B3" d="M55.8,9.3l-1.2-0.7l0.2-0.3L54.9,8l3.3,1.8L58,10.1l-0.2,0.3l-1.2-0.7l-1.9,3.4l-0.4-0.2l-0.4-0.2
					L55.8,9.3z"/>
				<path fill="#0668B3" d="M56,13.9l2.7-3.8l2.5,1.7L61,12.2l-0.2,0.3l-1.7-1.2l-0.7,0.9l1.6,1.1l-0.2,0.3l-0.2,0.3L58,12.8
					l-0.8,1.1l1.8,1.2l-0.2,0.3l-0.2,0.3L56,13.9z"/>
				<path fill="#0668B3" d="M63,15.2c0.1-0.2,0.2-0.3,0.2-0.5c0-0.2-0.1-0.3-0.3-0.5c-0.2-0.1-0.3-0.2-0.5-0.2c-0.2,0-0.3,0-0.4,0.2
					c-0.1,0.1-0.1,0.2-0.1,0.4c0,0.2,0.1,0.4,0.3,0.7l0.3,0.5c0.2,0.4,0.3,0.7,0.3,0.9c0,0.2-0.1,0.5-0.3,0.7
					c-0.3,0.3-0.6,0.5-1.1,0.4c-0.4,0-0.8-0.2-1.2-0.6c-0.5-0.4-0.7-0.8-0.8-1.2c0-0.4,0.1-0.8,0.4-1.1l0,0l0.7,0.6
					c-0.2,0.2-0.3,0.4-0.3,0.6s0.1,0.4,0.3,0.6c0.2,0.2,0.4,0.3,0.6,0.3c0.2,0,0.4,0,0.5-0.2c0.1-0.1,0.1-0.2,0.1-0.3
					s-0.1-0.3-0.3-0.6l-0.3-0.5c-0.2-0.4-0.4-0.8-0.4-1c0-0.3,0.1-0.5,0.3-0.7c0.3-0.3,0.6-0.5,1.1-0.5s0.8,0.2,1.2,0.5
					c0.4,0.4,0.6,0.8,0.7,1.1c0.1,0.4-0.1,0.7-0.3,1l-0.1,0.1L63,15.2z"/>
			</g>
			<g>
				<path fill="#0668B3" d="M8.6,24.1l4.2,1.9l-1.3,2.8l-0.3-0.2l-0.3-0.2l0.9-1.9l-1-0.5l-0.8,1.8l-0.3-0.2l-0.3-0.2l0.8-1.8
					l-1.2-0.6L8,27.2l-0.3-0.2l-0.3-0.2L8.6,24.1z"/>
				<path fill="#0668B3" d="M6.5,29.1l0.1-0.4l0.1-0.4l4.4,1.3L11,30.2l-0.2,0.6L7,31.5l3.3,1l-0.1,0.4l-0.1,0.4L5.7,32l0.2-0.6
					L6,30.7l3.9-0.6L6.5,29.1z"/>
				<path fill="#0668B3" d="M9.9,34l-0.1,0.5L9.8,35l-3.7,0.8v0l3.4,1.7L9.4,38l-0.1,0.5L5,36.1L5,35.6l0.1-0.5L9.9,34z"/>
				<path fill="#0668B3" d="M9.4,39l0,0.5l0,0.5l-4.6-0.1l0-0.5l0-0.5L9.4,39z"/>
				<path fill="#0668B3" d="M9.3,41.1l0,0.5L9.5,43c0,0.5,0,1-0.2,1.3s-0.5,0.5-0.9,0.5c-0.4,0-0.7-0.1-0.9-0.4
					c-0.1-0.1-0.2-0.3-0.3-0.5c0,0.2,0,0.3-0.1,0.4c-0.1,0.2-0.3,0.4-0.6,0.4c-0.3,0.1-0.6,0.1-0.8,0.2l-0.1,0
					c-0.2,0-0.3,0.1-0.4,0.1c-0.1,0-0.2,0.1-0.3,0.1l0-0.5l0-0.5C5,44.1,5.1,44,5.2,44c0.1,0,0.3-0.1,0.5-0.1L6,43.8
					c0.3-0.1,0.5-0.1,0.6-0.2c0.1-0.1,0.1-0.3,0.1-0.5l-0.1-0.8l-1.9,0.1l0-0.5l0-0.5L9.3,41.1z M7.4,42.2l0,0.6
					c0,0.3,0.1,0.6,0.2,0.8s0.3,0.2,0.5,0.2c0.2,0,0.4-0.1,0.5-0.3c0.1-0.2,0.1-0.4,0.1-0.7l-0.1-0.7L7.4,42.2z"/>
				<path fill="#0668B3" d="M5.8,46.5c0.3-0.4,0.9-0.8,1.6-0.9c0.8-0.2,1.4-0.1,1.9,0.1s0.8,0.7,0.9,1.4c0.2,0.7,0.1,1.2-0.2,1.7
					c-0.3,0.4-0.9,0.8-1.6,0.9c-0.8,0.2-1.4,0.1-1.9-0.1c-0.5-0.3-0.8-0.7-0.9-1.4C5.4,47.5,5.5,46.9,5.8,46.5z M6.8,48.8
					c0.3,0.1,0.8,0.1,1.3,0s0.9-0.3,1.2-0.6s0.3-0.6,0.2-1c-0.1-0.4-0.3-0.6-0.6-0.8c-0.3-0.1-0.8-0.1-1.3,0
					c-0.5,0.1-0.9,0.3-1.2,0.6c-0.2,0.3-0.3,0.6-0.2,1C6.3,48.4,6.5,48.7,6.8,48.8z"/>
				<path fill="#0668B3" d="M6.8,52.3l-0.2-0.4l-0.2-0.4l4.3-1.7l0.2,0.6l0.2,0.6l-2.6,2.8l3.2-1.3L12,53l0.2,0.4l-4.3,1.7l-0.2-0.6
					l-0.2-0.6l2.7-2.9L6.8,52.3z"/>
				<path fill="#0668B3" d="M9,57.2l-0.2-0.4l-0.2-0.4l3.9-2.4l0.4,0.7l0.4,0.7l-2.6,2.7l0,0l3.6-1.1l0.4,0.7l0.4,0.7l-3.9,2.4
					L11,60.4l-0.2-0.4l3.6-2.2l0,0l-4.2,1.2l-0.3-0.4l-0.3-0.4l3-3.2v0L9,57.2z"/>
				<path fill="#0668B3" d="M12.2,62.1l3.5-3l2,2.3l-0.3,0.2l-0.3,0.2l-1.4-1.6L14.9,61l1.3,1.5l-0.3,0.2L15.7,63l-1.3-1.5l-1,0.9
					l1.4,1.6l-0.3,0.2l-0.3,0.2L12.2,62.1z"/>
				<path fill="#0668B3" d="M15.8,66l-0.3-0.3l-0.3-0.3l3.1-3.4l0.5,0.4l0.5,0.4l-1.1,3.7l2.3-2.6l0.3,0.3l0.3,0.3L18,68l-0.5-0.4
					l-0.5-0.4l1.1-3.8L15.8,66z"/>
				<path fill="#0668B3" d="M22.4,66.3l-1.2-0.8l0.2-0.3l0.2-0.3l3.1,2.1l-0.2,0.3l-0.2,0.3l-1.2-0.8l-2.1,3.3l-0.4-0.3l-0.4-0.3
					L22.4,66.3z"/>
				<path fill="#0668B3" d="M26.2,67.7l0.5,0.3l0.5,0.3l-0.5,4.9l-0.5-0.2l-0.5-0.2l0.1-1l-1.8-0.8l-0.7,0.7l-0.5-0.2l-0.5-0.2
					L26.2,67.7z M24.8,70.3l1.3,0.6l0.3-2.3l0,0L24.8,70.3z"/>
				<path fill="#0668B3" d="M28,73.6l1.4-4.4l0.5,0.1l0.5,0.1l-1.2,3.7l1.8,0.6l-0.1,0.3l-0.1,0.3L28,73.6z"/>
				<path fill="#0668B3" d="M35,70.6l0.5,0.1l1.3,0.2c0.5,0.1,0.9,0.2,1.1,0.5c0.2,0.3,0.3,0.6,0.3,1.1c-0.1,0.5-0.2,0.8-0.6,1
					c-0.3,0.2-0.8,0.3-1.3,0.2l-0.7-0.1l-0.2,1.7l-0.5-0.1l-0.5-0.1L35,70.6z M35.7,72.9l0.5,0.1c0.3,0,0.5,0,0.7-0.1
					c0.2-0.1,0.3-0.3,0.3-0.5c0-0.2,0-0.4-0.1-0.5c-0.1-0.1-0.3-0.2-0.6-0.3l-0.6-0.1L35.7,72.9z"/>
				<path fill="#0668B3" d="M39,71.1l0.5,0l1.4,0c0.5,0,1,0.1,1.3,0.3c0.3,0.2,0.4,0.5,0.5,0.9c0,0.4-0.1,0.7-0.4,0.9
					c-0.1,0.1-0.3,0.2-0.5,0.2c0.2,0,0.3,0.1,0.4,0.1c0.2,0.1,0.4,0.3,0.4,0.6c0,0.3,0.1,0.6,0.1,0.8l0,0.1c0,0.2,0.1,0.3,0.1,0.4
					c0,0.1,0.1,0.2,0.1,0.3l-0.5,0l-0.5,0c0-0.1,0-0.1-0.1-0.3c0-0.1,0-0.3-0.1-0.5l-0.1-0.4c0-0.3-0.1-0.5-0.2-0.6
					c-0.1-0.1-0.3-0.1-0.5-0.1l-0.8,0l0,1.9l-0.5,0l-0.5,0L39,71.1z M40,73.1l0.6,0c0.3,0,0.6-0.1,0.8-0.2s0.3-0.3,0.3-0.5
					c0-0.2-0.1-0.4-0.2-0.5c-0.2-0.1-0.4-0.2-0.7-0.2l-0.7,0L40,73.1z"/>
				<path fill="#0668B3" d="M44.6,74.9c-0.4-0.3-0.7-0.9-0.8-1.7c-0.1-0.8-0.1-1.4,0.2-1.9c0.3-0.5,0.8-0.8,1.5-0.9
					c0.7-0.1,1.2,0,1.7,0.3c0.4,0.3,0.7,0.9,0.8,1.7c0.1,0.8,0.1,1.4-0.2,1.9c-0.3,0.5-0.8,0.8-1.5,0.9
					C45.6,75.3,45.1,75.2,44.6,74.9z M47,73.9c0.2-0.3,0.2-0.7,0.1-1.3c-0.1-0.5-0.3-0.9-0.5-1.2c-0.2-0.2-0.6-0.3-1-0.3
					c-0.4,0.1-0.6,0.3-0.8,0.6c-0.2,0.3-0.2,0.7-0.1,1.3c0.1,0.5,0.3,0.9,0.5,1.2c0.3,0.2,0.6,0.3,1,0.3
					C46.6,74.4,46.8,74.2,47,73.9z"/>
				<path fill="#0668B3" d="M49.5,70.3l-1.3,0.4l-0.1-0.3l-0.1-0.3l3.6-1.2l0.1,0.3l0.1,0.3L50.4,70l1.2,3.7l-0.5,0.1L50.7,74
					L49.5,70.3z"/>
				<path fill="#0668B3" d="M54.3,72.7l-2-4.1l2.7-1.3l0.2,0.3l0.2,0.3l-1.9,0.9l0.5,1l1.8-0.9l0.2,0.3l0.2,0.3l-1.8,0.9l0.6,1.2
					l1.9-0.9l0.2,0.3l0.2,0.3L54.3,72.7z"/>
				<path fill="#0668B3" d="M60.5,67.4c0.3,0.4,0.3,0.8,0.2,1.2s-0.4,0.8-0.9,1.2c-0.6,0.4-1.1,0.5-1.6,0.3c-0.5-0.1-1-0.5-1.4-1.2
					c-0.4-0.7-0.6-1.2-0.5-1.8s0.4-1,1-1.4c0.4-0.3,0.9-0.4,1.4-0.4c0.4,0.1,0.8,0.3,1,0.6l0,0.1l-0.8,0.5c-0.2-0.2-0.4-0.3-0.6-0.4
					c-0.2,0-0.5,0-0.7,0.2c-0.3,0.2-0.5,0.5-0.5,0.8c0,0.3,0.1,0.7,0.5,1.2c0.3,0.5,0.6,0.7,0.9,0.9c0.3,0.1,0.6,0.1,1-0.1
					c0.2-0.2,0.4-0.4,0.4-0.6c0.1-0.2,0-0.5-0.1-0.7L60.5,67.4z"/>
				<path fill="#0668B3" d="M60.5,64.2l-1.1,0.9l-0.2-0.3L59,64.6l2.8-2.5l0.2,0.3l0.2,0.3l-1.1,0.9l2.6,2.9l-0.4,0.3l-0.4,0.3
					L60.5,64.2z"/>
				<path fill="#0668B3" d="M62.3,61.6l0.3-0.3l0.3-0.3l3.4,3.1L66,64.4l-0.3,0.3L62.3,61.6z"/>
				<path fill="#0668B3" d="M67.1,62.3c-0.5,0-1.1-0.2-1.8-0.6c-0.6-0.5-1-1-1.1-1.5c-0.1-0.5,0-1.1,0.5-1.6
					c0.4-0.6,0.9-0.9,1.4-0.9c0.5,0,1.1,0.2,1.8,0.6c0.6,0.5,1,1,1.1,1.5c0.1,0.5,0,1.1-0.5,1.6C68.2,61.9,67.7,62.2,67.1,62.3z
					 M68.2,60c-0.1-0.3-0.4-0.7-0.8-1c-0.4-0.3-0.8-0.5-1.2-0.5c-0.3,0-0.6,0.1-0.9,0.5c-0.2,0.3-0.3,0.6-0.2,1
					c0.1,0.3,0.4,0.7,0.8,1c0.4,0.3,0.8,0.5,1.2,0.5c0.4,0,0.6-0.1,0.9-0.5C68.2,60.6,68.3,60.3,68.2,60z"/>
				<path fill="#0668B3" d="M71,57.5l-0.2,0.4l-0.2,0.4l-4.1-2.1l0.3-0.6l0.3-0.6l3.9,0.1l-3.1-1.6l0.2-0.4l0.2-0.4l4.1,2.1L72,55.4
					L71.7,56l-3.9-0.1L71,57.5z"/>
				<path fill="#0668B3" d="M69.7,48.7l0.2-0.6l0.2-0.6l4.9-0.5l-0.1,0.5L74.6,48l-1,0.1L73.1,50l0.9,0.6L73.8,51l-0.1,0.5
					L69.7,48.7z M72.4,49.6l0.4-1.4l-2.3,0.2l0,0L72.4,49.6z"/>
				<path fill="#0668B3" d="M75.3,44.1c-0.1,0.8-0.4,1.4-0.8,1.7s-1.1,0.5-1.8,0.4c-0.7-0.1-1.3-0.4-1.7-0.8s-0.5-1-0.5-1.7
					c0.1-0.6,0.3-1,0.6-1.3c0.3-0.3,0.7-0.4,1.2-0.3L72.2,43c-0.3,0-0.5,0-0.7,0.1c-0.2,0.1-0.2,0.3-0.3,0.7c0,0.4,0.1,0.8,0.3,1
					c0.3,0.3,0.7,0.4,1.2,0.5c0.5,0.1,1,0,1.3-0.2c0.3-0.2,0.5-0.5,0.5-1c0-0.2,0-0.5,0-0.8l-1-0.1l-0.1,0.9L72.8,44l0.2-1.8
					l2.3,0.3C75.4,43,75.4,43.5,75.3,44.1z"/>
				<path fill="#0668B3" d="M75.5,40.9L70.8,41l-0.1-3l0.4,0l0.4,0l0.1,2.1l1.1,0l0-2l0.4,0l0.4,0l0,2l1.3,0l-0.1-2.1l0.4,0l0.4,0
					L75.5,40.9z"/>
				<path fill="#0668B3" d="M75.1,35.4l0.1,0.4l0.1,0.4L70.7,37l-0.1-0.7l-0.1-0.7l3.1-2.2l-3.4,0.6l-0.1-0.4l-0.1-0.4l4.5-0.8
					l0.1,0.6l0.1,0.6L71.6,36L75.1,35.4z"/>
				<path fill="#0668B3" d="M71.6,27.8c0.4-0.2,0.8-0.1,1.3,0.1c0.4,0.3,0.7,0.6,0.9,1.2c0.2,0.6,0.2,1.2-0.1,1.7s-0.8,0.8-1.5,1.1
					s-1.4,0.3-1.9,0c-0.5-0.2-0.9-0.7-1.1-1.3c-0.2-0.5-0.2-1,0-1.4c0.2-0.4,0.4-0.7,0.8-0.8l0.1,0l0.3,0.9
					c-0.2,0.1-0.4,0.3-0.5,0.5c-0.1,0.2-0.1,0.4,0,0.7c0.1,0.4,0.3,0.6,0.7,0.7c0.3,0.1,0.8,0.1,1.3-0.1c0.5-0.2,0.9-0.4,1.1-0.7
					c0.2-0.3,0.3-0.6,0.1-1c-0.1-0.3-0.2-0.5-0.4-0.6s-0.4-0.1-0.7-0.1L71.6,27.8z"/>
				<path fill="#0668B3" d="M70.4,25.9l-1.8,2.7l-0.3-0.5l-0.3-0.5l1.4-1.9l0,0l-2.3,0l-0.2-0.4l-0.2-0.4L70,25l1.6-0.8l0.2,0.4
					l0.2,0.4L70.4,25.9z"/>
			</g>
		</g>
		<circle fill="#0668B3" cx="66.2" cy="20.5" r="1.3"/>
		<circle fill="#0668B3" cx="13.4" cy="20.7" r="1.3"/>
	</g>
</g>
</svg>
